# xmcd
#
# Track frame offsets:
#	150
#	39806
#	103868
#	146428
#	209244
#	259528
#
# Disc length: 4122 seconds
#
# Revision: 1
# Processed by: cddbd v1.5.2PL0 Copyright (c) Steve Scherf et al.
# Submitted via: audiograbber 1.83.01
#
DISCID=52101806
DTITLE=Yemen Blues - Live @ Altstadtherbst Kulturfestival Düsseldorf 3.10.2010
DYEAR=2010
DGENRE=Blues
TTITLE0=Yemen Blues
TTITLE1=Min Kalbi
TTITLE2=Trapete La Verite
TTITLE3=Baruca
TTITLE4=Yoducha
TTITLE5=At Va`ani
EXTD=
EXTT0=
EXTT1=
EXTT2=
EXTT3=
EXTT4=
EXTT5=
PLAYORDER=
